<?xml version="1.0" encoding="UTF-8" standalone="no"?>
<svg
   xmlns:dc="http://purl.org/dc/elements/1.1/"
   xmlns:cc="http://creativecommons.org/ns#"
   xmlns:rdf="http://www.w3.org/1999/02/22-rdf-syntax-ns#"
   xmlns:svg="http://www.w3.org/2000/svg"
   xmlns="http://www.w3.org/2000/svg"
   xmlns:sodipodi="http://sodipodi.sourceforge.net/DTD/sodipodi-0.dtd"
   xmlns:inkscape="http://www.inkscape.org/namespaces/inkscape"
   width="157.81029mm"
   height="104.01794mm"
   viewBox="0 0 157.81029 104.01794"
   version="1.1"
   id="svg8"
   inkscape:version="1.0.2-2 (e86c870879, 2021-01-15)"
   sodipodi:docname="icon.svg">
  <defs
     id="defs2" />
  <sodipodi:namedview
     id="base"
     pagecolor="#ffffff"
     bordercolor="#666666"
     borderopacity="1.0"
     inkscape:pageopacity="0.0"
     inkscape:pageshadow="2"
     inkscape:zoom="0.7"
     inkscape:cx="781.26878"
     inkscape:cy="-98.729331"
     inkscape:document-units="mm"
     inkscape:current-layer="layer1"
     inkscape:document-rotation="0"
     showgrid="false"
     inkscape:snap-bbox="true"
     inkscape:window-width="2400"
     inkscape:window-height="1271"
     inkscape:window-x="2391"
     inkscape:window-y="-9"
     inkscape:window-maximized="1" />
  <metadata
     id="metadata5">
    <rdf:RDF>
      <cc:Work
         rdf:about="">
        <dc:format>image/svg+xml</dc:format>
        <dc:type
           rdf:resource="http://purl.org/dc/dcmitype/StillImage" />
        <dc:title></dc:title>
      </cc:Work>
    </rdf:RDF>
  </metadata>
  <g
     inkscape:label="Layer 1"
     inkscape:groupmode="layer"
     id="layer1"
     transform="translate(-53.2739,-16.095516)">
    <path
       id="path853"
       style="fill:#817038;fill-opacity:1;stroke-width:2.94486"
       d="m 666.61328,59.652344 c -9.08194,0 -17.48653,1.288485 -25.2168,3.865234 -7.73023,2.57675 -14.4172,6.25953 -20.0625,11.044922 -5.64234,4.785392 -10.05972,10.673934 -13.25195,17.667969 -3.18928,6.871234 -4.7832,14.663231 -4.7832,23.375001 0,4.41728 0.42719,8.46737 1.28711,12.14844 9.49784,21.6807 6.49718,-4.0326 6.4414,-12.88477 0,-6.25782 0.92121,-11.96369 2.76172,-17.117187 1.84056,-5.2763 4.35565,-9.754476 7.54492,-13.435547 3.19223,-3.803781 6.87306,-6.687141 11.04297,-8.65039 4.29653,-2.085929 8.7758,-3.128907 13.4375,-3.128907 3.80478,0 8.284,0.612813 13.4375,1.839844 5.1535,1.227035 10.67279,2.578353 16.5625,4.050781 6.01338,1.472429 12.20834,2.821799 18.58985,4.048828 6.50226,1.227035 13.0075,1.839844 19.50976,1.839844 6.62593,0 14.1123,-0.675676 22.45508,-2.02539 8.46648,-1.349719 16.74735,-3.251041 24.8457,-5.705078 -9.19974,6.135108 -17.29795,13.375087 -24.29492,21.71875 -6.9911,8.221152 -13.4345,17.423222 -19.32422,27.607422 -3.68107,6.50313 -7.42473,13.68211 -11.22656,21.53516 -3.68107,7.85305 -7.85392,17.36133 -12.51562,28.52734 -4.54096,11.16601 -9.8167,24.47896 -15.83008,39.93945 -6.01047,15.4605 -13.12956,34.05122 -21.35156,55.76953 -5.88972,15.3377 -11.40705,29.26364 -16.56055,41.7793 -5.03275,12.51566 -10.06296,24.04924 -15.09571,34.60156 -14.98369,1.39862 -28.73251,2.94871 -41.33203,4.63672 l -10.13867,1.42774 c -6.76916,1.00206 -13.20385,2.04525 -19.20703,3.14062 -19.38599,3.68107 -35.27603,8.09846 -47.66797,13.25195 -12.27122,5.1535 -21.28864,11.10197 -27.05469,17.85157 -5.64529,6.87035 -8.46875,14.72402 -8.46875,23.55859 0,11.39861 2.96556,20.48322 8.88477,27.25781 -2.45857,0.28342 -4.93898,0.42774 -7.44336,0.42774 -12.7559,0 -21.89066,-3.30575 -27.40234,-9.91992 -5.51169,-6.61418 -8.26758,-15.90637 -8.26758,-27.875 0,-11.02375 1.96911,-24.33131 5.90625,-39.92188 3.93713,-15.74816 8.89673,-32.67675 14.88086,-50.78711 5.98412,-18.11036 12.44208,-36.7719 19.37109,-55.98437 6.92901,-19.37008 13.38615,-38.11034 19.36914,-56.22071 5.98299,-18.26759 10.94637,-35.35438 14.88086,-51.25976 3.93827,-15.90539 5.90625,-29.6054 5.90625,-41.10156 0,-14.960632 -3.93781,-26.220247 -11.81054,-33.779302 -7.87276,-7.559055 -20.62966,-11.339844 -38.26758,-11.339844 -6.14174,0 -11.81097,0.709631 -17.00782,2.126954 -5.19685,1.259827 -10.39299,3.936774 -15.58984,8.03125 -5.03924,3.937018 -10.39516,9.76392 -16.06445,17.480468 -5.51169,7.559055 -11.73115,17.558934 -18.66016,30.000004 -6.61417,11.96863 -13.46612,25.19748 -20.55273,39.68554 -6.92901,14.48807 -14.09465,29.60536 -21.4961,45.35352 -7.24422,15.74816 -14.72279,31.81163 -22.43945,48.18945 -7.55906,16.37783 -15.35522,32.5204 -23.38672,48.42578 -8.03149,15.74816 -16.22007,30.94418 -24.56641,45.58985 -8.18908,14.48806 -16.61384,27.796 -25.27539,39.92187 -7.08661,9.76366 -14.01533,18.2675 -20.78711,25.51172 -6.77175,7.24422 -13.62372,13.22872 -20.55273,17.95313 -29.50787,11.15404 -22.89799,25.69644 3.07227,9.44726 7.71666,-4.88201 15.27433,-11.02238 22.67578,-18.42383 7.55905,-7.55905 15.1974,-16.69381 22.91406,-27.40234 5.8269,-8.0315 11.73267,-16.92971 17.7168,-26.69336 6.14173,-9.92126 12.20532,-20.39227 18.18945,-31.41602 6.14173,-11.02374 12.20337,-22.44093 18.1875,-34.25195 6.14173,-11.81102 12.12623,-23.78039 17.95313,-35.90625 h 99.44921 c -4.40957,12.91351 -8.66149,25.59018 -12.75586,38.03125 -3.93713,12.28347 -7.48139,24.01629 -10.63085,35.19727 -2.99226,11.02374 -5.43251,21.26016 -7.32227,30.70898 -1.73216,9.44884 -2.59766,17.6374 -2.59766,24.56641 0,8.03149 1.25949,15.59112 3.7793,22.67773 2.67704,6.92901 6.53497,12.99065 11.57422,18.1875 5.03924,5.19685 11.26066,9.29177 18.66211,12.28516 7.40145,2.99338 15.98441,4.48828 25.74804,4.48828 8.28996,0 16.21892,-1.18906 23.79102,-3.55664 6.97212,3.43385 15.56711,5.1543 25.79492,5.1543 13.49628,0 26.25936,-2.08499 38.28321,-6.25782 12.02384,-4.04919 23.49842,-10.24507 34.41796,-18.58789 11.04322,-8.22206 21.53574,-18.58983 31.47461,-31.10547 9.93891,-12.39193 19.633,-26.99542 29.08008,-43.80468 11.53501,-1.2271 22.08547,-2.63915 31.65625,-4.23438 9.69449,-1.71776 18.59112,-3.92547 26.68945,-6.625 8.09836,-2.82206 15.58083,-6.25748 22.45118,-10.30664 6.99696,-4.0492 13.62401,-9.01849 19.8789,-14.9082 6.26075,-6.01251 12.33295,-13.06766 18.22266,-21.16602 6.01338,-8.22115 12.08557,-17.73139 18.22266,-28.5293 12.52142,-20.5373 7.41836,-25.41715 -4.97071,-3.49609 -5.39792,9.44798 -10.67462,17.9135 -15.82812,25.39844 -5.0298,7.48494 -10.30849,14.11004 -15.83008,19.87695 -5.39792,5.76693 -11.22558,10.73819 -17.48633,14.91016 -6.25489,4.17199 -13.25119,7.72897 -20.97851,10.67383 -7.73318,2.82206 -16.38235,5.09279 -25.95313,6.81054 -9.44708,1.71772 -20.1223,3.06733 -32.02539,4.04883 7.60656,-14.11086 14.96822,-29.57072 22.08594,-46.38086 7.11772,-16.81012 14.23384,-35.21621 21.35156,-55.2168 8.09836,-22.82261 15.09076,-42.33258 20.98047,-58.52929 5.88971,-16.19671 11.04365,-30.00079 15.46094,-41.41211 4.54099,-11.53412 8.59103,-21.10349 12.14843,-28.71094 3.68107,-7.73025 7.3619,-14.3573 11.04297,-19.878905 3.31295,-4.908193 6.62456,-9.140862 9.9375,-12.699219 3.43665,-3.681071 6.87195,-6.749089 10.3086,-9.203125 3.5574,-2.454036 7.05553,-4.47908 10.49218,-6.074219 16.42064,-7.023235 9.75521,-6.82181 -3.3164,-2.576171 -4.04625,1.349714 -8.15722,2.516439 -12.33008,3.498047 -4.17286,0.858925 -8.59025,1.532616 -13.25195,2.023437 -4.66171,0.368096 -10.12207,0.552734 -16.38282,0.552734 -8.09835,0 -14.96799,-0.245507 -20.61328,-0.736328 -5.64234,-0.6135 -10.55174,-1.350056 -14.72461,-2.208984 -4.16991,-0.858928 -7.85074,-1.717244 -11.04297,-2.576172 -3.06561,-0.981608 -6.07272,-1.902795 -9.01757,-2.761719 -2.94486,-0.858928 -6.07083,-1.532628 -9.38672,-2.023437 -3.18928,-0.61352 -6.99287,-0.921875 -11.41016,-0.921875 z M 464.55664,70.404297 c 3.30709,0 6.29757,0.394252 8.97461,1.181641 2.83465,0.629931 5.19813,1.96837 7.08789,4.015624 2.04737,1.889764 3.62212,4.566673 4.72461,8.03125 1.10249,3.46458 1.65234,7.953046 1.65234,13.464844 0,8.503934 -1.25948,18.582914 -3.77929,30.236324 -2.36221,11.65342 -5.59119,24.33047 -9.68555,38.03125 -3.93713,13.70079 -8.42365,28.03169 -13.46289,42.99219 -4.88202,14.96051 -9.92229,30.00103 -15.11914,45.11914 h -98.03125 c 5.98412,-12.44107 11.81118,-24.7257 17.48047,-36.85156 5.8269,-12.28346 11.41703,-24.09501 16.77148,-35.43359 5.35446,-11.33859 10.4715,-22.04614 15.35352,-32.125 5.03924,-10.07887 9.68553,-19.13452 13.9375,-27.16602 5.19685,-10.07887 10.00058,-18.42489 14.41015,-25.039062 4.40958,-6.614173 8.6615,-11.889151 12.75586,-15.826172 4.09437,-3.93702 8.26757,-6.692762 12.51953,-8.267578 4.40958,-1.574816 9.21331,-2.363281 14.41016,-2.363281 z M 621.51953,355.61133 c -8.34281,17.17735 -16.38205,31.41357 -24.10937,42.70117 -7.73318,11.28763 -15.64579,20.30609 -23.74414,27.05273 -8.09836,6.74964 -16.68859,11.4734 -25.76758,14.17383 -9.07899,2.82119 -19.01762,4.23242 -29.81641,4.23242 -5.10554,0 -9.7378,-0.49752 -13.89844,-1.48828 -0.42432,-0.29839 -9.38324,-2.89205 -13.89648,-6.42382 -6.62593,-5.27717 -9.93555,-13.31354 -9.93555,-24.10938 0,-6.01342 1.71765,-11.47374 5.1543,-16.38281 3.4337,-4.78538 8.28122,-9.07999 14.53906,-12.88477 6.2578,-3.80474 13.74226,-7.11635 22.45313,-9.9375 8.7109,-2.82119 18.28222,-5.34018 28.71289,-7.54883 5.59293,-1.11794 21.83416,-3.74377 27.84961,-4.7207 1.87429,-0.26872 3.73601,-0.54091 5.64843,-0.79687 11.9031,-1.47243 24.17121,-2.76289 36.81055,-3.86719 z"
       transform="matrix(0.26458333,0,0,0.26458333,0,0.3125)"
       sodipodi:nodetypes="ssccscccccssccscccccccccccccccscssscscccsssccccccccccsccscccccccccscssscscccccccccccccccccscscccccccccscccscssccssccccccsccsscsccccsccscsscccc" />
    <path
       d="m 153.1018,62.959483 c 0.77131,0 1.51272,0.08898 2.22459,0.26695 0.72682,0.177969 1.42374,0.378181 2.09148,0.60064 0.66701,0.207618 1.29737,0.400427 1.89071,0.578394 0.60794,0.177967 1.17174,0.266952 1.69069,0.266952 0.41539,0 0.85283,-0.08159 1.31269,-0.244706 0.47446,-0.163124 0.93398,-0.452321 1.37889,-0.86759 0.44492,-0.41527 0.86778,-0.986225 1.2682,-1.712936 0.91794,-3.836397 3.07973,-3.997634 1.00124,0.08898 -0.45986,0.919487 -1.06067,1.727779 -1.80209,2.424805 -0.72681,0.697028 -1.57216,1.253175 -2.53604,1.668445 -0.96387,0.400427 -2.02455,0.60064 -3.18135,0.60064 -0.17796,0 -0.39295,-0.0074 -0.64495,-0.02225 -0.23741,-0.02965 -0.50435,-0.09639 -0.80084,-0.200213 0.31143,0.652535 0.51895,1.260614 0.62288,1.824165 0.1185,0.548745 0.17796,1.127139 0.17796,1.735182 0,1.586865 -0.31144,3.092185 -0.93433,4.515923 -0.60792,1.42374 -1.44616,2.684352 -2.51397,3.781807 -1.06779,1.082648 -2.31356,1.942798 -3.73731,2.580528 -1.4088,0.637656 -2.91404,0.956574 -4.51574,0.956574 -1.34971,0 -2.65456,-0.23741 -3.91528,-0.711869 -1.24577,-0.474568 -2.3506,-1.156788 -3.31483,-2.046626 -0.94892,-0.889837 -1.71275,-1.965045 -2.29115,-3.225658 -0.5784,-1.275422 -0.86741,-2.706599 -0.86741,-4.293464 0,-1.661041 0.31857,-3.18857 0.95639,-4.58266 0.65244,-1.408897 1.56469,-2.639862 2.73608,-3.692824 1.17173,-1.052962 2.57341,-1.905745 4.20465,-2.55828 1.63125,-0.652535 3.42588,-1.060401 5.38351,-1.223526 -1.24577,-0.622887 -2.20252,-1.468231 -2.86953,-2.536036 -0.66774,-1.082647 -1.00125,-2.254241 -1.00125,-3.514855 0,-1.127139 0.25948,-2.157855 0.77843,-3.092185 0.53389,-0.934328 1.23865,-1.727767 2.11354,-2.380313 0.88984,-0.652545 1.91314,-1.156787 3.06994,-1.512722 1.15679,-0.370766 2.36554,-0.556148 3.6259,-0.556148 1.11266,0 2.06906,0.133481 2.8699,0.400425 0.8158,0.266952 1.48319,0.622888 2.00214,1.067805 0.5339,0.444919 0.92685,0.956575 1.17885,1.534969 0.25236,0.563551 0.37836,1.141945 0.37836,1.735182 0,0.533902 -0.10388,1.075208 -0.31145,1.623953 -0.19291,0.533902 -0.4894,1.045558 -0.88983,1.534969 -0.40043,0.489409 -0.9119,0.934328 -1.53479,1.334755 -2.60832,1.463417 -3.29401,1.215774 -0.60082,-0.400427 0.54885,-0.341092 1.00089,-0.734115 1.35683,-1.179034 0.35592,-0.444919 0.62289,-0.919485 0.80084,-1.42374 0.17797,-0.519058 0.26696,-1.023311 0.26696,-1.512722 0,-0.504253 -0.10359,-0.986224 -0.31109,-1.445986 -0.19291,-0.474578 -0.48228,-0.889836 -0.86777,-1.245771 -0.38547,-0.355934 -0.87489,-0.637717 -1.46823,-0.845344 -0.59334,-0.207628 -1.2753,-0.311444 -2.04662,-0.311444 -1.08275,0 -2.09858,0.207628 -3.04787,0.622886 -0.94892,0.400427 -1.77967,0.956575 -2.49154,1.668444 -0.71187,0.711871 -1.27532,1.549812 -1.6907,2.51379 -0.41501,0.949171 -0.62287,1.965044 -0.62287,3.047691 0,0.548745 0.0519,1.067805 0.15589,1.557215 0.10388,0.489411 0.25947,0.941731 0.46698,1.357001 0.20788,0.41527 0.4524,0.778608 0.73429,1.090051 0.29651,0.2966 0.63785,0.533902 1.02332,0.71187 0.0595,-0.02964 0.1705,-0.0519 0.33388,-0.06674 0.16301,-0.02965 0.32603,-0.04449 0.48904,-0.04449 0.40079,0 0.60082,0.111229 0.60082,0.333689 0,0.207616 -0.2374,0.311442 -0.71188,0.311442 -0.11849,0 -0.252,-0.0074 -0.40042,-0.02225 -0.13354,-0.01484 -0.24453,-0.0519 -0.3335,-0.11123 -1.63161,0.177967 -3.11444,0.608043 -4.44919,1.290264 -1.32016,0.667377 -2.45453,1.534969 -3.4038,2.602773 -0.94928,1.067805 -1.68322,2.320979 -2.20217,3.75956 -0.50437,1.42374 -0.75672,2.988359 -0.75672,4.693891 0,1.46823 0.18544,2.743652 0.55632,3.8263 0.38549,1.082645 0.90478,1.979886 1.55723,2.691757 0.65241,0.711867 1.41626,1.245771 2.2915,1.601705 0.87489,0.341093 1.80921,0.511656 2.80262,0.511656 1.27568,0 2.51398,-0.26695 3.71525,-0.800852 1.21623,-0.533902 2.29151,-1.275422 3.22549,-2.224593 0.94928,-0.949172 1.70564,-2.076274 2.26944,-3.38138 0.57803,-1.305106 0.86741,-2.728846 0.86741,-4.271218 0,-0.919485 -0.10388,-1.675848 -0.31144,-2.269084 -0.20751,-0.608043 -0.49689,-1.090051 -0.86777,-1.445985 -0.35594,-0.355935 -0.7859,-0.600641 -1.28992,-0.734116 -0.48975,-0.148318 -1.01618,-0.222459 -1.57962,-0.222459 -0.66738,0 -1.29028,0.08898 -1.86868,0.266951 -0.57838,0.177968 -1.08273,0.444918 -1.51272,0.800854 -0.42995,0.355934 -0.7713,0.808257 -1.0233,1.357 -0.44404,0.94106 -1.35713,3.832372 -1.35713,1.179039 0,-0.93433 0.17086,-1.772271 0.51184,-2.513791 0.34098,-0.741519 0.80085,-1.364404 1.37924,-1.868658 0.57839,-0.519058 1.25325,-0.912082 2.0242,-1.179033 0.78626,-0.281794 1.61666,-0.422672 2.49155,-0.422672 z"
       fill="#817038"
       id="path851"
       style="stroke-width:0.355934"
       sodipodi:nodetypes="ccccscsccccscccscccscccsccsccscccscccscsccscscssscscscccccssscccscscscscccscccsssccscccc" />
  </g>
</svg>
