<?xml version="1.0" standalone="no"?>
<!DOCTYPE svg PUBLIC "-//W3C//DTD SVG 20010904//EN" "http://www.w3.org/TR/2001/REC-SVG-20010904/DTD/svg10.dtd">
<!-- Created using Krita: https://krita.org -->
<svg xmlns="http://www.w3.org/2000/svg" 
    xmlns:xlink="http://www.w3.org/1999/xlink"
    xmlns:krita="http://krita.org/namespaces/svg/krita"
    xmlns:sodipodi="http://sodipodi.sourceforge.net/DTD/sodipodi-0.dtd"
    width="240pt"
    height="240pt"
    viewBox="0 0 240 240">
<defs/>
<path id="path839" transform="matrix(-0.172009065294011 0.319148553679119 -0.319148553679119 -0.172009065294011 211.699600438094 128.686491582232)" fill="none" stroke="#e8e2cd" stroke-width="2.11667" stroke-linecap="butt" stroke-linejoin="round" stroke-dasharray="8.46668,2.11667" d="M0 20.3881C6.16064 31.8181 16.7563 41.0769 29.5637 44.373C37.5983 46.4408 46.0155 44.703 53.6688 42.0532C61.1063 39.478 68.5799 36.1213 74.1414 30.3847C76.8204 27.6213 80.5571 20.8486 78.6239 17.2189C76.3169 12.8874 72.386 8.57625 68.0323 6.6273C64.2852 4.94997 57.0147 9.73897 54.3576 13.0066C50.0298 18.3287 49.3548 25.6423 49.8976 32.2317C51.0886 46.6899 59.5782 60.6007 72.6378 67.3203C85.4476 73.9114 100.764 73.6743 114.305 69.8898C126.869 66.3782 138.683 60.0208 148.462 51.4209C155.606 45.1377 158.858 39.3999 160.709 29.7965C162.124 22.4565 161.107 15.9417 156.075 10.5992C152.123 6.4027 147.695 4.60328 142.174 2.65544C136.922 0.802779 130.975 2.66144 127.131 6.56303C120.592 13.2008 119.312 17.2621 118.544 26.3168C117.098 43.3699 123.129 61.4064 136.227 72.8184C147.852 82.9476 163.768 87.3238 178.904 86.4942C194.94 85.6151 210.457 80.2832 224.688 73.1084C239.839 65.4695 248.501 62.8634 259.343 49.6558C265.457 42.2089 269.472 37.1059 268.611 27.1486C267.82 17.9982 265.625 11.345 258.448 6.17755C252.324 1.76832 244.432 -1.45349 236.836 0.669509C228.662 2.95442 223.005 10.1996 219.678 17.6336C213.887 30.5722 215.16 33.6245 217.794 47.4982C219.861 58.3805 225.266 69.1259 234.715 75.4653C248.815 84.9247 266.55 87.0074 283.099 85.4489"/><g id="g971" transform="matrix(0.362550572829211 0 0 0.362550572829211 4.92958080639018 86.2220839586589)" fill="none">
  <g id="g858" transform="matrix(0.26458333 0 0 0.26458333 56.91631 265.82324)" fill="none">
   <path id="svg_1" transform="translate(204.383223846662, 176.123618184456)" fill="none" stroke="#e8e2cd" stroke-width="8.00001" stroke-linecap="butt" stroke-linejoin="round" stroke-dasharray="32,8.00001" d="M130.5 53.8927C184.305 -78.413 395.112 53.8927 130.5 224C-134.112 53.8927 76.6955 -78.413 130.5 53.8927Z"/>
  </g>
  <path id="path925" transform="translate(9.4494039, 208.308569819873)" fill="none" stroke="#e8e2cd" stroke-width="2.11667" stroke-linecap="butt" stroke-linejoin="round" stroke-dasharray="8.46668,2.11667" d="M0 4.11405C1.93967 2.13563 4.4916 0.76603 7.21246 0.24317C9.93332 -0.27969 12.8111 0.0465002 15.3459 1.16507C19.3301 2.92321 22.2732 6.50137 24.2057 10.4039C27.8729 17.8096 28.2969 26.3459 28.5932 34.6044C28.8419 41.5369 29.1213 48.7537 32.394 54.8701C34.7006 59.1812 38.3831 62.6583 42.5537 65.2101C46.799 67.8077 51.5273 69.4862 56.137 71.3626C60.7466 73.2391 65.3483 75.3801 69.0425 78.7151C75.0071 84.0998 77.9655 91.9589 80.8663 99.4527C82.115 102.679 83.3959 105.905 85.0763 108.928C86.7566 111.952 88.8562 114.783 91.5384 116.968C94.2361 119.165 97.4962 120.666 100.92 121.287"/>
 </g><path id="path943" transform="matrix(0.333049943146093 -0.143250316680887 0.143250316680887 0.333049943146093 22.5722694463145 95.0402505736458)" fill="none" stroke="#e8e2cd" stroke-width="2.11667" stroke-linecap="butt" stroke-linejoin="round" stroke-dasharray="8.46668,2.11667" d="M0 11.5204C14.171 20.0858 30.1461 25.6504 46.5718 27.7429C53.7992 28.6636 61.215 28.9098 68.3033 27.2248C75.3916 25.5398 82.1689 21.766 86.4264 15.8536C87.9245 13.7733 89.1122 11.3958 89.3759 8.84583C89.5077 7.57083 89.4033 6.26531 89.0081 5.04595C88.6129 3.82659 87.9218 2.69598 86.9726 1.83454C85.3855 0.394136 83.1239 -0.214618 80.9992 0.0670661C78.8745 0.348749 76.9027 1.47534 75.4468 3.04825C73.9909 4.62116 73.0344 6.61909 72.5433 8.70537C72.0523 10.7916 72.0126 12.9665 72.2433 15.0973C72.7572 19.8416 74.6119 24.4044 77.3666 28.3011C80.1212 32.1978 83.7582 35.4376 87.8275 37.9302C94.2215 41.8469 101.594 43.9082 108.997 45.1017C116.4 46.2951 123.637 47.0397 134.143 46.6182C139.396 46.4074 144.653 45.5915 149.603 43.8209C154.553 42.0502 159.196 39.3002 162.857 35.5273C164.961 33.3592 166.746 30.8353 167.776 27.9951C168.806 25.1548 169.046 21.9804 168.135 19.0996C167.09 15.7919 164.481 12.9923 161.217 11.8175C159.585 11.2301 157.81 11.0398 156.092 11.2827C154.375 11.5255 152.719 12.2023 151.332 13.2437C149.254 14.8034 147.832 17.1409 147.127 19.641C146.421 22.1411 146.399 24.7984 146.776 27.3686C147.861 34.7687 152.225 41.4424 157.942 46.2646C163.66 51.0867 170.656 54.1893 177.836 56.2849C196.573 61.7539 216.951 60.5957 235.475 54.4418C240.626 52.7305 245.706 50.6138 250.093 47.4165C254.479 44.2192 258.157 39.8524 259.786 34.6746C260.629 31.9962 260.903 29.0672 260.074 26.3842C259.66 25.0427 258.972 23.7793 258.02 22.747C257.068 21.7147 255.85 20.919 254.503 20.5237C253.178 20.1348 251.747 20.1392 250.41 20.4845C249.073 20.8297 247.829 21.5101 246.782 22.4098C244.686 24.2093 243.415 26.8382 242.89 29.55C241.952 34.3877 243.288 39.5046 245.964 43.6428C248.639 47.7811 252.568 51.0003 256.866 53.4101C263.904 57.3564 271.961 59.2375 280.011 59.8037"/><path id="path973" transform="matrix(0.362550572829211 0 0 0.362550572829211 76.6139385234622 17.2799987202645)" fill="none" stroke="#e8e2cd" stroke-width="2.11667" stroke-linecap="butt" stroke-linejoin="round" stroke-dasharray="8.46668,2.11667" d="M0 5.36871C8.23667 1.08766 17.7421 -0.713916 26.974 0.25629C35.0627 1.10634 42.8123 4.01487 50.0869 7.65191C57.3616 11.289 64.2384 15.6635 71.309 19.683C82.6658 26.1391 95.0086 31.801 108.071 31.9906C122.863 32.2054 136.765 25.4208 149.828 18.479C162.892 11.5372 176.287 4.11841 191.028 2.88441C200.603 2.08296 210.439 4.03903 218.821 8.73533C225.923 12.7145 231.81 18.4933 238.063 23.7059C244.316 28.9186 251.292 33.7374 259.303 35.1856C265.152 36.2428 271.23 35.418 276.874 33.5565"/><g id="g9711" transform="matrix(-0.362550563116726 0 0 0.362550563116726 233.071359742708 -44.5701113998728)" fill="none">
  <g id="g8581" transform="matrix(0.26458333 0 0 0.26458333 56.91631 265.82324)" fill="none">
   <path id="svg_11" transform="translate(204.383403579436, 176.123641536956)" fill="none" stroke="#e8e2cd" stroke-width="8.00001" stroke-linecap="butt" stroke-linejoin="round" stroke-dasharray="32,8.00001" d="M130.5 53.8927C184.305 -78.413 395.112 53.8927 130.5 224C-134.112 53.8927 76.6953 -78.413 130.5 53.8927Z"/>
  </g>
  <path id="path9251" transform="translate(9.4494039, 208.308569679759)" fill="none" stroke="#e8e2cd" stroke-width="2.11667" stroke-linecap="butt" stroke-linejoin="round" stroke-dasharray="8.46668,2.11667" d="M0 4.11405C1.93967 2.13563 4.4916 0.76603 7.21246 0.24317C9.93332 -0.27969 12.8111 0.0465003 15.3459 1.16507C19.3301 2.92321 22.2732 6.50137 24.2057 10.4039C27.8729 17.8096 28.2969 26.3459 28.5932 34.6044C28.8419 41.5369 29.1213 48.7537 32.394 54.8701C34.7006 59.1812 38.3831 62.6583 42.5537 65.2101C46.799 67.8077 51.5273 69.4862 56.137 71.3626C60.7466 73.2391 65.3483 75.3801 69.0425 78.7151C75.0071 84.0998 77.9655 91.9589 80.8663 99.4527C82.115 102.679 83.3959 105.905 85.0763 108.928C86.7566 111.952 88.8562 114.783 91.5384 116.968C94.2361 119.165 97.4962 120.666 100.92 121.287"/>
 </g>
</svg>
