<svg width="79" height="79" viewBox="0 0 79 79" fill="none" xmlns="http://www.w3.org/2000/svg">
<path fill-rule="evenodd" clip-rule="evenodd" d="M39.5 79C61.3152 79 79 61.3152 79 39.5C79 17.6848 61.3152 0 39.5 0C17.6848 0 0 17.6848 0 39.5C0 61.3152 17.6848 79 39.5 79ZM44 24C44 21.7909 42.2091 20 40 20C37.7909 20 36 21.7909 36 24V46.3884L26.5662 38.4983C24.8716 37.0811 22.349 37.3059 20.9317 39.0005C19.5144 40.695 19.7392 43.2177 21.4338 44.635L36.8153 57.4995C36.8333 57.5219 36.8515 57.5441 36.87 57.5662C37.6749 58.5286 38.8362 59.0169 40 58.9997C41.1637 59.0169 42.3251 58.5286 43.13 57.5662C43.1485 57.5441 43.1667 57.5219 43.1847 57.4995L58.5662 44.635C60.2608 43.2177 60.4856 40.695 59.0683 39.0005C57.651 37.3059 55.1284 37.0811 53.4338 38.4983L44 46.3884V24Z" fill="#F1EDE1"/>
</svg>
