<svg width="39" height="40" viewBox="0 0 39 40" fill="none" xmlns="http://www.w3.org/2000/svg">
<g clip-path="url(#clip0_155_943)">
<path fill-rule="evenodd" clip-rule="evenodd" d="M31.0895 0.722656L38.2872 8.02083C39.2375 8.98438 39.2375 10.5599 38.2872 11.5234L34.3063 15.5599L23.6542 4.75912L27.6351 0.722656C28.5853 -0.240885 30.1392 -0.240885 31.0895 0.722656ZM22.5305 16.9889V16.9922C22.8259 17.2917 22.9736 17.6888 22.9736 18.0794C22.9736 18.4701 22.8259 18.8639 22.5305 19.1667V19.1699L22.5273 19.1732L12.8704 28.9681H12.8672C12.7837 29.0527 12.6906 29.1244 12.5975 29.1862H12.5943C12.498 29.2481 12.3985 29.2969 12.2957 29.3327C11.7628 29.5215 11.1432 29.3978 10.7194 28.9681H10.7162V28.9648C10.6328 28.8802 10.5621 28.7858 10.5011 28.6914V28.6882C10.4401 28.5905 10.392 28.4896 10.3567 28.3854C10.1705 27.8451 10.2925 27.2168 10.713 26.7871V26.7839L20.3731 16.9889H20.3763C20.6717 16.6895 21.0634 16.5397 21.4486 16.5397C21.8339 16.5397 22.2223 16.6895 22.5209 16.9889H22.5305ZM14.6008 35.5176C11.7179 36.4225 8.83814 37.3242 5.9552 38.2292C-0.818757 40.3548 -0.789863 41.7708 1.05933 35.1563L3.97117 24.7396L3.96154 24.7298L21.638 6.80339L32.2901 17.6042L14.6104 35.5306L14.6008 35.5176ZM5.78826 26.582L12.7837 33.6751C10.8896 34.2676 8.99545 34.86 7.10452 35.4492C2.6549 36.8392 2.67416 37.7702 3.88449 33.4245L5.78826 26.582Z" fill="#008037"/>
</g>
<defs>
<clipPath id="clip0_155_943">
<rect width="39" height="40" fill="white"/>
</clipPath>
</defs>
</svg>
