<?xml version="1.0" standalone="no"?>
<!DOCTYPE svg PUBLIC "-//W3C//DTD SVG 20010904//EN"
 "http://www.w3.org/TR/2001/REC-SVG-20010904/DTD/svg10.dtd">
<svg version="1.0" xmlns="http://www.w3.org/2000/svg"
 width="1192.000000pt" height="1192.000000pt" viewBox="0 0 1192.000000 1192.000000"
 preserveAspectRatio="xMidYMid meet">
<metadata>
Created by potrace 1.14, written by Peter Selinger 2001-2017
</metadata>
<g transform="translate(0.000000,1192.000000) scale(0.100000,-0.100000)"
fill="#000000" stroke="none">
<path d="M9159 9876 c-2 -2 -31 -6 -64 -9 -33 -3 -104 -15 -158 -27 -87 -19
-127 -32 -252 -80 -16 -6 -32 -12 -35 -12 -3 0 -17 -9 -32 -20 -16 -11 -28
-17 -28 -13 0 3 -6 1 -12 -5 -7 -5 -48 -33 -90 -61 -74 -48 -196 -160 -228
-209 -8 -12 -20 -28 -25 -34 -20 -21 -84 -132 -105 -181 -35 -82 -67 -186 -75
-245 -23 -162 -24 -306 -2 -434 5 -27 78 -164 96 -180 32 -29 43 -9 47 86 2
46 6 89 9 96 2 6 1 12 -3 12 -8 0 -7 352 1 395 21 102 34 146 69 227 17 40 45
93 62 118 17 25 31 47 31 50 0 3 25 31 55 63 50 53 174 146 203 151 6 1 30 10
52 20 22 9 55 19 75 22 19 3 42 7 50 10 23 6 149 6 200 -1 50 -6 85 -13 85
-15 0 -1 10 -3 23 -6 60 -11 94 -19 152 -34 103 -28 393 -95 449 -105 19 -3
38 -8 41 -10 4 -3 25 -7 46 -10 22 -3 62 -10 89 -15 133 -25 206 -30 370 -29
175 1 225 3 225 9 0 3 12 5 28 6 33 1 138 13 166 19 12 2 37 7 56 10 44 6 83
13 138 26 23 5 59 12 80 15 20 3 41 8 45 11 10 6 187 51 187 48 0 -1 -20 -15
-45 -31 -25 -15 -45 -32 -45 -36 0 -4 -5 -8 -11 -8 -32 0 -304 -262 -414 -400
-33 -41 -62 -77 -65 -80 -3 -3 -31 -41 -63 -85 -31 -44 -61 -85 -67 -92 -5 -7
-10 -14 -10 -16 0 -2 -22 -38 -49 -79 -28 -41 -60 -95 -72 -119 -13 -24 -25
-46 -29 -49 -9 -8 -65 -114 -153 -290 -88 -176 -118 -241 -216 -462 -51 -117
-254 -617 -295 -728 -8 -19 -71 -181 -140 -360 -119 -304 -169 -435 -296 -770
-27 -74 -54 -144 -59 -155 -5 -11 -22 -54 -36 -95 -15 -41 -33 -88 -40 -105
-8 -16 -30 -73 -50 -125 -19 -52 -40 -104 -44 -115 -5 -11 -21 -51 -36 -90
-15 -38 -34 -84 -41 -102 -8 -17 -14 -34 -14 -38 0 -4 -6 -21 -14 -38 -8 -18
-62 -149 -121 -292 -59 -143 -113 -273 -120 -290 -105 -234 -159 -351 -164
-357 -4 -4 -36 -10 -71 -13 -36 -3 -81 -7 -100 -10 -33 -5 -113 -13 -190 -21
-19 -1 -55 -5 -80 -8 -25 -3 -65 -8 -90 -11 -76 -8 -144 -16 -170 -20 -24 -4
-64 -9 -152 -20 -24 -4 -83 -12 -133 -20 -49 -7 -112 -16 -140 -20 -27 -3
-111 -17 -185 -30 -74 -13 -151 -27 -170 -30 -19 -3 -66 -13 -104 -22 -37 -8
-73 -16 -80 -17 -6 -2 -29 -8 -51 -14 -22 -6 -56 -14 -75 -17 -19 -3 -46 -10
-60 -15 -14 -5 -54 -16 -90 -25 -77 -19 -298 -91 -349 -113 -20 -9 -41 -16
-47 -18 -6 -1 -45 -18 -86 -38 -41 -20 -80 -36 -86 -36 -6 0 -17 -6 -24 -12
-7 -7 -33 -24 -58 -37 -245 -134 -393 -301 -455 -516 -32 -110 -35 -242 -9
-400 8 -49 35 -139 46 -152 6 -7 8 -13 5 -13 -9 0 33 -76 72 -133 l32 -47 -28
-1 c-118 -6 -238 -3 -291 7 -34 6 -63 11 -65 11 -1 0 -29 8 -62 18 -192 60
-315 198 -375 418 -26 98 -32 150 -32 307 1 132 6 214 18 295 4 22 8 51 10 65
8 63 31 195 34 195 1 0 3 9 5 20 1 11 10 52 19 90 9 39 19 81 22 95 2 14 14
59 25 100 21 76 25 93 34 132 3 13 12 46 20 73 8 28 30 104 49 170 19 66 58
192 86 280 28 88 52 167 54 176 4 13 116 354 130 394 2 6 4 12 4 15 0 4 6 21
38 105 4 11 8 25 10 30 1 6 16 48 33 95 18 47 33 90 35 95 10 37 40 125 71
210 21 55 42 116 47 135 5 19 16 49 23 65 8 17 59 161 115 320 56 160 104 297
107 305 3 8 7 20 9 25 1 6 21 64 44 130 23 66 48 140 56 164 9 24 17 51 19 60
3 9 32 97 65 196 34 99 63 191 66 204 3 14 8 29 11 34 3 5 11 30 18 55 7 26
34 117 59 202 38 127 101 353 111 395 7 34 17 72 22 85 4 8 6 18 5 21 0 3 10
48 24 100 13 52 26 108 29 124 2 17 6 41 10 55 15 68 42 257 54 377 8 86 6
354 -4 393 -3 14 -8 43 -12 65 -12 84 -85 269 -120 303 -7 7 -13 16 -13 20 0
17 -114 125 -169 161 -78 50 -234 111 -321 125 -19 3 -48 8 -65 10 -170 29
-426 24 -572 -9 -13 -3 -32 -7 -44 -10 -86 -19 -200 -73 -288 -138 -76 -55
-191 -167 -259 -252 -31 -38 -59 -72 -62 -75 -6 -6 -21 -27 -115 -164 -58 -85
-235 -372 -235 -382 0 -2 -15 -29 -34 -61 -33 -57 -74 -133 -144 -263 -19 -36
-39 -71 -44 -77 -6 -7 -7 -13 -4 -13 4 0 -1 -12 -11 -27 -21 -30 -243 -476
-344 -688 -34 -71 -82 -173 -107 -225 -25 -52 -46 -97 -47 -100 0 -3 -16 -36
-34 -75 -42 -88 -87 -184 -100 -216 -6 -13 -15 -31 -21 -39 -5 -8 -32 -64 -59
-125 -27 -60 -68 -150 -91 -200 -23 -49 -70 -151 -105 -225 -34 -74 -90 -193
-124 -264 -33 -70 -61 -129 -61 -131 0 -2 -22 -50 -49 -107 -26 -56 -55 -118
-62 -135 -8 -18 -17 -33 -21 -33 -5 0 -8 -6 -8 -12 0 -7 -11 -35 -24 -63 -14
-27 -79 -162 -145 -300 -67 -137 -125 -257 -130 -265 -22 -35 -101 -200 -101
-209 0 -5 -4 -11 -8 -13 -5 -1 -27 -39 -49 -83 -84 -163 -108 -210 -113 -215
-3 -3 -23 -39 -44 -80 -22 -41 -49 -88 -60 -105 -12 -16 -20 -31 -18 -33 2 -2
-21 -49 -43 -84 -5 -9 -34 -61 -64 -115 -30 -54 -58 -99 -63 -101 -4 -2 -8 -8
-8 -14 0 -10 -168 -298 -180 -308 -3 -3 -28 -41 -55 -85 -86 -141 -285 -425
-382 -545 -174 -216 -315 -370 -459 -501 -51 -46 -228 -179 -239 -179 -18 0
-154 -67 -215 -106 -93 -59 -137 -106 -146 -154 -5 -25 -2 -32 25 -48 34 -20
52 -21 134 -2 55 13 260 106 265 121 2 5 8 9 13 9 8 0 149 95 177 121 8 6 46
37 85 68 161 128 418 405 577 621 30 41 57 77 60 80 21 20 365 535 390 585 3
6 21 36 40 68 19 33 46 78 59 100 13 23 33 58 46 77 21 32 157 275 247 440 20
36 47 85 60 110 14 25 47 86 73 135 26 50 52 96 57 103 6 6 7 12 4 12 -4 0 1
12 12 28 10 15 34 59 52 97 19 39 38 73 43 76 5 3 8 9 8 13 -1 3 17 42 39 86
22 44 40 83 39 86 0 4 3 10 9 13 5 3 28 47 52 96 23 50 46 92 51 93 5 2 9 9 9
16 0 7 38 89 85 183 l84 171 991 1 c544 0 990 -3 990 -6 0 -6 -125 -382 -137
-413 -4 -8 -7 -17 -7 -20 -1 -3 -28 -84 -60 -180 -32 -96 -59 -179 -61 -185
-1 -5 -5 -17 -8 -25 -3 -8 -27 -85 -53 -170 -25 -85 -48 -162 -51 -170 -4 -8
-7 -19 -8 -25 -2 -5 -19 -66 -40 -135 -20 -69 -38 -132 -40 -140 -14 -50 -26
-98 -31 -120 -3 -14 -10 -43 -16 -65 -6 -22 -13 -44 -14 -50 -2 -5 -6 -23 -9
-38 -3 -16 -12 -54 -21 -85 -8 -32 -17 -73 -20 -92 -3 -19 -10 -53 -16 -75 -5
-22 -11 -47 -13 -55 -1 -8 -5 -32 -9 -53 -4 -20 -9 -52 -11 -70 -3 -17 -7 -41
-9 -52 -21 -101 -29 -441 -13 -540 4 -27 9 -59 11 -70 11 -65 56 -214 67 -221
5 -3 9 -11 9 -19 0 -42 150 -260 223 -324 16 -14 39 -35 51 -47 31 -31 114
-87 176 -120 30 -16 58 -33 62 -39 4 -5 8 -7 8 -2 0 4 12 1 27 -7 39 -19 170
-63 218 -71 22 -4 49 -10 60 -12 80 -17 327 -23 455 -11 36 4 66 7 68 8 3 3
10 5 67 15 53 9 62 11 70 15 3 1 8 3 13 4 67 17 75 17 105 3 49 -23 195 -64
262 -73 69 -10 435 -10 480 -1 17 3 55 9 85 12 30 3 62 8 70 10 8 2 31 7 50
10 28 5 123 28 195 49 75 21 162 50 171 57 6 5 19 10 30 12 10 2 46 16 79 31
214 97 397 211 600 373 136 108 365 337 480 479 22 27 44 54 50 61 17 21 29
36 80 103 27 36 52 67 55 70 8 7 145 209 211 310 5 8 29 45 53 82 25 37 47 77
51 88 3 11 11 20 16 20 5 0 9 4 9 9 0 5 26 53 58 107 55 94 58 97 97 101 53 5
357 43 383 48 11 2 42 6 69 10 26 4 59 9 73 11 14 2 41 7 60 10 198 32 480
107 640 170 93 37 305 141 373 183 72 45 246 171 295 214 64 56 195 190 257
262 33 39 62 72 66 75 3 3 18 23 34 45 17 22 32 42 36 45 3 3 21 28 39 55 19
28 39 55 45 62 29 34 35 43 35 50 0 4 11 21 25 37 14 16 25 33 25 37 0 4 6 14
13 21 7 7 37 54 67 103 30 50 57 92 60 95 3 3 12 19 20 35 8 17 17 32 20 35 5
5 9 12 70 120 109 191 138 265 131 328 -2 22 -30 13 -62 -20 -41 -42 -109
-134 -109 -147 0 -5 -4 -11 -8 -13 -9 -4 -152 -247 -152 -259 0 -5 -4 -9 -10
-9 -5 0 -10 -7 -10 -15 0 -8 -4 -15 -10 -15 -5 0 -10 -5 -10 -10 0 -13 -81
-144 -92 -148 -4 -2 -8 -8 -8 -13 0 -11 -118 -183 -199 -290 -132 -173 -276
-324 -416 -435 -44 -35 -86 -69 -92 -74 -36 -29 -205 -126 -300 -171 -143 -68
-347 -135 -523 -173 -106 -23 -178 -37 -210 -41 -14 -2 -43 -7 -65 -11 -22 -4
-51 -8 -65 -9 -14 -1 -25 -3 -25 -5 0 -1 -16 -3 -35 -5 -19 -2 -57 -6 -85 -9
-27 -4 -66 -9 -85 -11 -19 -2 -66 -7 -105 -11 -38 -3 -80 -8 -92 -9 -23 -2
-30 13 -14 30 5 6 41 73 80 150 39 77 75 146 81 153 6 6 9 12 6 12 -3 0 5 21
19 48 38 77 135 283 135 288 0 3 14 35 31 72 16 37 36 81 44 97 11 26 48 113
96 231 7 16 13 34 15 39 1 6 16 44 34 85 17 41 35 84 39 95 37 87 71 176 71
185 0 6 9 30 21 54 11 25 22 51 23 58 2 7 9 27 15 43 15 36 60 158 130 355 29
80 58 161 66 180 8 19 26 69 40 110 14 41 28 82 32 90 3 8 7 20 9 25 1 6 32
93 69 195 37 102 68 191 68 198 0 6 3 12 7 12 4 0 7 6 7 13 1 6 35 107 78 222
42 116 94 257 115 315 21 58 59 164 85 235 26 72 53 144 60 160 7 17 30 75 50
130 21 55 51 130 67 167 15 36 28 70 28 76 0 5 34 87 76 183 41 96 76 179 78
184 5 23 131 273 183 362 64 112 154 240 232 333 58 68 201 210 213 210 4 0
13 6 20 14 27 26 154 102 243 144 50 24 109 53 131 65 41 22 56 42 32 43 -24
0 -134 -27 -248 -62 -225 -70 -347 -94 -550 -110 -109 -9 -680 -4 -680 6 0 3
-17 6 -38 6 -20 1 -59 5 -87 9 -27 4 -61 8 -75 10 -14 1 -32 5 -40 8 -8 2 -44
10 -80 17 -36 6 -72 13 -80 15 -12 2 -123 32 -185 49 -5 2 -17 6 -25 9 -20 8
-163 47 -198 54 -134 25 -192 31 -312 31 -75 1 -139 0 -141 -2z m-3727 -231
c80 -21 111 -40 169 -100 44 -46 107 -191 95 -221 -2 -6 -2 -15 2 -18 3 -4 7
-16 9 -29 4 -31 3 -286 -1 -322 -2 -16 -7 -57 -10 -90 -7 -65 -10 -78 -32
-200 -8 -44 -17 -91 -19 -105 -7 -36 -13 -65 -15 -65 -1 0 -3 -11 -5 -25 -6
-34 -13 -65 -15 -65 -1 0 -3 -11 -5 -25 -7 -63 -139 -550 -227 -835 -80 -263
-273 -858 -295 -915 -4 -8 -7 -17 -8 -20 -7 -29 -49 -157 -54 -165 -3 -5 -6
-14 -7 -20 -1 -5 -28 -84 -59 -175 -31 -91 -61 -182 -67 -202 l-10 -38 -979 0
c-539 0 -979 2 -979 5 0 3 4 13 10 23 9 18 105 218 180 377 23 50 55 116 71
148 15 31 26 57 23 57 -3 0 4 14 16 30 12 17 23 36 24 43 1 7 18 46 38 87 20
41 60 125 88 185 141 299 218 461 270 570 103 217 149 316 149 318 -2 5 433
859 441 867 3 3 23 39 44 80 57 109 148 260 227 375 214 313 405 456 643 481
33 4 62 8 64 9 9 8 172 -7 224 -20z m2958 -5681 c8 -3 10 -8 5 -12 -6 -4 -43
-72 -83 -152 -115 -231 -211 -400 -322 -570 -30 -47 -57 -90 -60 -96 -3 -6
-15 -24 -27 -40 -13 -16 -44 -58 -70 -94 -26 -36 -52 -70 -58 -76 -5 -7 -23
-29 -40 -50 -42 -53 -141 -158 -199 -213 -27 -25 -57 -53 -65 -61 -80 -76
-337 -240 -375 -240 -8 0 -16 -4 -18 -8 -7 -18 -258 -92 -378 -112 -130 -21
-178 -24 -335 -25 -239 0 -308 14 -483 95 -159 75 -261 215 -290 400 -11 66
-4 285 8 285 1 0 3 11 6 24 12 66 80 168 176 264 54 53 105 97 113 97 8 0 15
4 15 8 0 10 98 67 200 117 81 40 90 44 165 74 28 10 59 23 70 27 11 4 25 9 30
9 6 1 17 5 25 8 32 14 295 91 350 102 8 2 51 12 95 23 71 18 106 26 218 47 15
3 37 7 50 9 12 3 40 7 62 10 22 4 64 11 93 17 29 6 59 8 67 5 8 -3 15 -1 17 4
2 5 26 11 53 14 28 3 75 10 105 16 30 5 75 12 100 15 25 3 62 7 83 10 106 14
198 25 342 40 33 4 74 8 90 10 17 2 71 7 120 10 50 4 91 8 93 9 4 5 37 4 52 0z"/>
<path d="M7572 7629 c-248 -30 -451 -142 -558 -310 -16 -24 -29 -46 -29 -49 0
-3 -9 -30 -20 -60 -19 -56 -26 -178 -13 -252 16 -102 110 -240 205 -304 75
-49 76 -51 61 -51 -38 0 -141 -15 -162 -23 -13 -5 -26 -7 -28 -4 -3 2 -52 -11
-110 -30 -187 -61 -325 -142 -440 -257 -103 -103 -189 -248 -218 -364 -6 -27
-14 -59 -17 -70 -8 -34 -11 -279 -3 -300 4 -11 13 -44 20 -74 13 -55 52 -145
95 -215 32 -53 139 -164 195 -201 80 -54 208 -111 275 -121 11 -2 39 -8 63
-13 24 -5 91 -7 150 -5 122 4 130 5 192 24 25 7 51 15 58 16 48 9 251 123 260
146 2 4 8 8 12 8 9 0 111 101 140 137 35 44 60 83 60 92 0 5 4 11 8 13 16 7
100 203 111 261 0 4 1 8 2 10 19 60 15 279 -5 347 -32 104 -32 103 -5 94 82
-28 356 29 391 80 4 6 8 7 8 3 0 -13 111 80 154 129 68 78 143 229 152 304 13
119 -79 35 -122 -111 -20 -68 -55 -123 -112 -178 -100 -96 -198 -107 -397 -46
-308 95 -386 105 -544 70 -150 -33 -296 -173 -327 -315 -10 -47 -16 -150 -10
-175 9 -34 21 -31 39 8 39 84 57 127 57 135 0 5 7 15 15 22 8 7 13 15 10 19
-7 13 94 95 140 113 106 41 243 40 333 -3 38 -19 107 -94 107 -117 0 -4 3 -11
6 -17 24 -38 37 -197 24 -280 -16 -101 -22 -127 -47 -193 -66 -176 -197 -330
-358 -420 -64 -36 -144 -67 -215 -82 -117 -26 -300 -7 -378 40 -17 11 -41 24
-52 29 -49 22 -145 136 -177 211 -21 46 -42 103 -44 115 -1 6 -5 24 -8 40 -15
75 -25 246 -16 275 0 3 3 30 5 61 4 56 26 158 47 214 23 62 90 195 99 195 5 0
9 7 9 15 0 13 151 171 191 200 53 39 128 77 244 126 69 29 202 50 248 39 39
-8 77 3 77 25 0 16 -5 17 -80 19 -58 1 -93 28 -142 108 -45 72 -62 145 -61
255 4 393 418 684 776 544 15 -6 33 -15 40 -21 6 -6 23 -19 37 -29 14 -11 39
-43 54 -72 39 -71 45 -158 15 -246 -11 -34 -25 -63 -30 -63 -5 0 -9 -6 -9 -13
0 -20 -67 -85 -130 -125 -146 -94 -161 -129 -30 -69 174 80 271 200 287 354
21 209 -164 373 -433 382 -37 1 -70 3 -73 5 -3 1 -34 -1 -69 -5z"/>
</g>
</svg>
